<?xml version="1.0" encoding="UTF-8"?>
<svg id="Layer_2" data-name="Layer 2" xmlns="http://www.w3.org/2000/svg" viewBox="0 0 1292.51 251.64">
  <defs>
    <style>
      .cls-1 {
        fill: #1c1b1b;
      }
    </style>
  </defs>
  <g id="Layer_1-2" data-name="Layer 1">
    <g>
      <g>
        <g>
          <path class="cls-1" d="M270.24,193.75V56.11s-49.36,0-49.36,0c-39.03,0-70.66,30.81-70.66,68.82h0c0,38.01,31.64,68.82,70.66,68.82h49.36Z"/>
          <path class="cls-1" d="M0,193.67h137.64s0-123,0-123C137.64,31.64,106.83,0,68.82,0h0C30.81,0,0,31.64,0,70.66v123Z"/>
        </g>
        <rect class="cls-1" x="285.25" y="151.79" width="41.88" height="41.88" rx="20.94" ry="20.94"/>
      </g>
      <g>
        <path class="cls-1" d="M612.67,62.77l.03,82.1c.02,27.17-22.54,49.26-50.27,49.26h-6.92c-13.66,0-26.66-5.29-36.59-14.89-10.16-9.82-15.77-22.79-15.78-36.53l-.04-79.94h41.82l.04,82.82c0,3.89,1.68,7.84,4.5,10.56,1.47,1.42,3.92,3.11,7.25,3.11,7.28,0,14.16-7.69,14.16-15.83l-.04-80.66h41.82Z"/>
        <g>
          <g>
            <path class="cls-1" d="M752.4,156.46c0-22.66,20.85-36.94,50.99-39.43l26.52-2.27v-2.71c0-15.87-8.4-22.22-22.66-22.22-13.16,0-24.71,5.9-26.07,21.09h-25.59c1.81-23.12,16.31-44.88,52.57-44.88,30.13,0,49.86,14.95,49.86,46.46v40.78c0,12.23,4.76,15.65,9.74,15.65v22.88c-2.27,0-5.22.22-8.4,0-10.19-.46-21.29-1.37-26.5-14.04-7.03,9.28-22.68,15.63-39.67,15.63-23.79,0-40.78-13.6-40.78-36.94ZM829.9,154.19v-19.26l-20.85,2.27c-17.46,2.05-26.74,8.16-26.74,17.9s8.16,15.43,18.12,15.43c13.16,0,24.25-7.71,29.47-16.33Z"/>
            <path class="cls-1" d="M1001.08,129.04c0,35.82-23.56,63.9-57.33,63.9-15.19,0-27.42-5.67-36.26-15.63v74.33h-30.82V67.4h28.55l2.27,13.36c8.84-9.96,21.29-14.73,36.48-14.73,33.77,0,57.11,26.96,57.11,63ZM970.48,129.04c0-20.85-12.92-37.16-32.4-37.16-14.73,0-26.52,10.2-30.6,24.47v25.17c4.08,14.26,15.87,24.25,30.6,24.25,19.49,0,32.4-16.09,32.4-36.72Z"/>
            <path class="cls-1" d="M1008.84,38.16c0-9.06,7.47-16.31,16.31-16.31s16.33,7.25,16.33,16.31-7.25,16.33-16.33,16.33-16.31-7.25-16.31-16.33ZM1010.21,67.16h30.6v124.65h-30.6v-124.65Z"/>
            <path class="cls-1" d="M1118.81,192.04c-25.61,0-46.93-3.4-46.93-39.66v-61.19h-20.61v-24.47h4.98c15.63,0,15.63-8.4,15.63-19.95v-24.93h28.79v43.29h32.18v26.06h-32.4v58.92c0,12.47,5.89,17,18.36,17h14.95v24.93h-14.95Z"/>
            <path class="cls-1" d="M1139.92,156.46c0-22.66,20.85-36.94,50.99-39.43l26.52-2.27v-2.71c0-15.87-8.4-22.22-22.66-22.22-13.16,0-24.71,5.9-26.07,21.09h-25.59c1.81-23.12,16.31-44.88,52.57-44.88,30.13,0,49.86,14.95,49.86,46.46v40.78c0,12.23,4.76,15.65,9.74,15.65v22.88c-2.27,0-5.22.22-8.4,0-10.19-.46-21.29-1.37-26.5-14.04-7.03,9.28-22.68,15.63-39.67,15.63-23.79,0-40.78-13.6-40.78-36.94ZM1217.42,154.19v-19.26l-20.85,2.27c-17.46,2.05-26.74,8.16-26.74,17.9s8.16,15.43,18.12,15.43c13.16,0,24.25-7.71,29.47-16.33Z"/>
            <path class="cls-1" d="M1263.96,191.81V21.84h28.55v169.97h-28.55Z"/>
          </g>
          <path class="cls-1" d="M744.12,151.79c-8.05,8.08-20.33,14.3-36.96,14.3-34.01,0-54.4-26.06-54.4-59.14s20.39-59.16,54.4-59.16c17.32,0,29.24,6.18,36.96,14.32V27.55c-10.59-5.01-23.03-7.86-36.96-7.86-48.96,0-82.28,38.99-82.28,87.26s33.55,87.47,82.28,87.25c13.64-.07,26.16-3.51,36.96-9.15v-33.25Z"/>
        </g>
        <polygon class="cls-1" points="494.03 20.6 493.97 193.29 453.79 193.29 453.82 124.89 409.39 124.89 409.42 193.29 369.25 193.29 369.18 20.6 409.35 20.6 409.38 88.77 453.84 88.77 453.86 20.6 494.03 20.6"/>
      </g>
    </g>
  </g>
</svg>